# xmcd
#
# Track frame offsets:
#	150
#	2767
#	21135
#	48445
#	67202
#	68930
#	84947
#	107810
#	126250
#	127650
#	146570
#	164850
#	185922
#	200597
#	202107
#	226340
#
# Disc length: 3252 seconds
#
# Revision: 1
# Processed by: cddbd v1.4PL0 Copyright (c) Steve Scherf et al.
# Submitted via: EasyCDDAExtractor 4.6.9.1
#
DISCID=f00cb210
DTITLE=Betsy Pecanins - Esta que habita mi cuerpo
DYEAR=1999
DGENRE=Blues
TTITLE0=Preludio I
TTITLE1=Definición
TTITLE2=La memoria del cuerpo
TTITLE3=Esta que habita mi cuerpo
TTITLE4=Preludio II
TTITLE5=Espina
TTITLE6=Milwaukee
TTITLE7=Soñe que era perfecta
TTITLE8=Preludio III
TTITLE9=Rompecabezas
TTITLE10=Lumbre de amor
TTITLE11=Ni más ni  menos
TTITLE12=Cuanto te quisieron
TTITLE13=Preludio IV
TTITLE14=Para la libertad
TTITLE15=Dentro y fuera
EXTD=YEAR: 1999 ID3G: 0
EXTT0=
EXTT1=
EXTT2=
EXTT3=
EXTT4=
EXTT5=
EXTT6=
EXTT7=
EXTT8=
EXTT9=
EXTT10=
EXTT11=
EXTT12=
EXTT13=
EXTT14=
EXTT15=
PLAYORDER=
